<?xml version="1.0" standalone="no"?>
<!DOCTYPE svg PUBLIC "-//W3C//DTD SVG 1.1//EN" "http://www.w3.org/Graphics/SVG/1.1/DTD/svg11.dtd" >
<svg>
<metadata>
Created by FontForge 20110222 at Tue Jul 29 21:45:41 2014
 By Orthosie Webhosting
Copr.1996 Ethan Dunham - Fonthead Design
</metadata>
<defs>
<font id="BraveWorld" horiz-adv-x="218" >
  <font-face 
    font-family="BraveWorld"
    font-weight="500"
    font-stretch="normal"
    units-per-em="1000"
    panose-1="0 0 0 0 0 0 0 0 0 0"
    ascent="800"
    descent="-200"
    x-height="641"
    cap-height="641"
    bbox="-119 -148 242 800"
    underline-thickness="20"
    underline-position="-123"
    unicode-range="U+0020-2022"
  />
<missing-glyph horiz-adv-x="1000" 
 />
    <glyph glyph-name=".notdef" horiz-adv-x="1000" 
 />
    <glyph glyph-name=".null" horiz-adv-x="0" 
 />
    <glyph glyph-name="nonmarkingreturn" horiz-adv-x="142" 
 />
    <glyph glyph-name="space" unicode=" " horiz-adv-x="142" 
 />
    <glyph glyph-name="numbersign" unicode="#" horiz-adv-x="244" 
d="M192 641v-641h-42v225h-58v-225h-42v225h-50v41h50v109h-50v41h50v225h42v-225h58v225h42zM150 266v109h-58v-109h58z" />
    <glyph glyph-name="dollar" unicode="$" horiz-adv-x="200" 
d="M49 446q0 -26 15.5 -57t34.5 -63.5t34.5 -65.5t15.5 -64q0 -30 -15 -55t-35 -45v-96h-42v63q-20 -12 -38 -20l-19 37q16 8 35 19.5t35 26t26.5 32t10.5 38.5q0 26 -15.5 56.5t-34.5 63t-34.5 65.5t-15.5 65q0 29 14.5 54t35.5 45v96h42v-63q9 6 18.5 10.5t19.5 9.5
l19 -37q-17 -8 -35.5 -19.5t-34.5 -26t-26.5 -32t-10.5 -37.5z" />
    <glyph glyph-name="percent" unicode="%" horiz-adv-x="192" 
d="M148 638l-107 -641l-41 6l107 641zM103 0v91h42v-91h-42zM45 641v-91h-42v91h42z" />
    <glyph glyph-name="ampersand" unicode="&#x26;" horiz-adv-x="233" 
d="M192 300h-50v-313l-30 15q-10 5 -20 14t-16 17q-22 26 -36 58.5t-23 68t-12.5 71.5t-4.5 69v41q1 33 4.5 69t12.5 71t23 68t36 59q6 8 16 17t20 14l18 9l19 -37l-19 -9q-5 -3 -13 -11t-12 -13q-18 -23 -30 -52.5t-19 -61t-10 -63.5t-4 -60h150v-41zM100 300h-58
q1 -28 4 -58.5t9.5 -61t17 -59t27.5 -51.5v230z" />
    <glyph glyph-name="quoteright" unicode="&#x2019;" horiz-adv-x="93" 
d="M0 629h42v-156h-42v156z" />
    <glyph glyph-name="parenleft" unicode="(" horiz-adv-x="195" 
d="M149 611q-5 -2 -9.5 -4.5t-9.5 -4.5q-8 -5 -15.5 -12.5t-12.5 -15.5q-18 -26 -30 -57t-18.5 -65t-9 -67.5t-2.5 -63.5q0 -31 2.5 -65.5t9.5 -68.5t19 -66t32 -57q4 -5 12 -13.5t13 -11.5l19 -9l-19 -37l-18 9q-9 5 -18.5 13t-15.5 16q-24 28 -39 63.5t-24 74t-12 78
t-3 74.5t3 74t12 77.5t24 74t39 63.5q6 8 15.5 16t18.5 13l18 9z" />
    <glyph glyph-name="parenright" unicode=")" horiz-adv-x="196" 
d="M0 30q5 2 9.5 4.5t9.5 4.5q8 5 15 12.5t13 15.5q18 25 30 56.5t18.5 65.5t9 68t2.5 64t-2.5 63.5t-9 67.5t-18.5 65t-30 57q-6 8 -13 15.5t-15 12.5q-5 2 -9.5 4.5t-9.5 4.5l19 37l18 -9q9 -5 18.5 -13t15.5 -16q24 -28 39 -63.5t23.5 -74t12 -77.5t3.5 -74t-3.5 -74.5
t-12 -78t-23.5 -74t-39 -63.5q-6 -8 -15.5 -16t-18.5 -13l-18 -9z" />
    <glyph glyph-name="asterisk" unicode="*" horiz-adv-x="256" 
d="M208 450l-25 -34l-58 44v-110h-42v110l-58 -44l-25 34l70 52l-70 53l25 34l58 -45v97h42v-97l58 45l25 -34l-69 -53z" />
    <glyph glyph-name="plus" unicode="+" horiz-adv-x="192" 
d="M92 416v-75h50v-41h-50v-75h-42v75h-50v41h50v75h42z" />
    <glyph glyph-name="comma" unicode="," horiz-adv-x="94" 
d="M42 79v-142h-42v142h42z" />
    <glyph glyph-name="hyphen" unicode="-" horiz-adv-x="201" 
d="M0 341h142v-41h-142v41z" />
    <glyph glyph-name="period" unicode="." horiz-adv-x="94" 
d="M0 -13v92h42v-92h-42z" />
    <glyph glyph-name="slash" unicode="/" horiz-adv-x="188" 
d="M148 625l-107 -641l-41 7l107 641z" />
    <glyph glyph-name="zero" unicode="0" horiz-adv-x="238" 
d="M96 653q32 -19 51 -59.5t29 -88.5t13 -96t3 -81t-3 -81t-13 -96t-29 -88.5t-51 -59.5q-32 19 -51 59.5t-29 88.5t-13 95.5t-3 81.5t3 81.5t13 95.5t29 88.5t51 59.5zM96 59q17 25 27.5 59t16.5 70.5t8 73t2 66.5t-2 66.5t-8 73t-16.5 70.5t-27.5 59q-17 -25 -27.5 -59
t-16.5 -70.5t-8 -73t-2 -66.5t2 -66.5t8 -73t16.5 -70.5t27.5 -59z" />
    <glyph glyph-name="one" unicode="1" horiz-adv-x="144" 
d="M92 0h-42v600h-50v42h92v-642z" />
    <glyph glyph-name="two" unicode="2" horiz-adv-x="195" 
d="M149 41v-41h-142v171v12q29 14 48 38t30.5 53t16.5 60.5t5 61.5q0 48 -12.5 95.5t-44.5 84.5q-6 6 -14.5 14t-16.5 12l-19 9l19 37l18 -9q11 -5 20.5 -13.5t17.5 -16.5q41 -42 57.5 -99t16.5 -114q0 -32 -5 -66t-17 -65.5t-31 -59t-47 -46.5v-118h100z" />
    <glyph glyph-name="three" unicode="3" horiz-adv-x="201" 
d="M102 407q16 -12 25.5 -34.5t14 -47.5t6 -50t1.5 -43q0 -56 -16.5 -108t-56.5 -92q-8 -8 -18 -16.5t-21 -13.5l-18 -9l-19 37l19 9q8 4 16 11t14 13q32 34 45 78.5t13 90.5q0 10 -1 31t-4 44t-9.5 42.5t-17.5 25.5l-23 1l50 224h-95v41h147l-52 -234v0z" />
    <glyph glyph-name="four" unicode="4" horiz-adv-x="194" 
d="M142 641v-641h-42v150h-100v266h42v-225h58v450h42z" />
    <glyph glyph-name="five" unicode="5" horiz-adv-x="192" 
d="M49 482q28 -19 47 -46.5t31 -59t17 -65t5 -65.5q0 -59 -17.5 -117.5t-60.5 -100.5q-7 -8 -15.5 -14.5t-18.5 -11.5l-18 -9l-19 37l18 9q8 4 15.5 10.5t12.5 11.5q35 37 48 86t13 99q0 29 -5 60.5t-16.5 60.5t-30.5 53t-48 38v183h142v-41h-100v-118z" />
    <glyph glyph-name="six" unicode="6" horiz-adv-x="232" 
d="M56 486q34 -17 60 -42.5t42.5 -57t25 -67.5t8.5 -73q0 -33 -4 -69t-14.5 -70t-29.5 -63.5t-48 -48.5l-12 8q-8 6 -16 16t-13 19q-17 28 -28 64t-17 74t-8 75.5t-2 69.5t2 69.5t8 75t17 73t28 64.5q5 9 13 19t16 16l18 11l23 -34l-17 -12q-9 -6 -17.5 -21.5t-15.5 -33.5
t-12 -35t-7 -27zM97 50q16 19 26 43t16 50t8.5 52.5t2.5 50.5q0 60 -24 112.5t-77 84.5q-4 -31 -5.5 -61.5t-1.5 -60.5q0 -29 2 -66t8 -74.5t16.5 -72t28.5 -58.5z" />
    <glyph glyph-name="seven" unicode="7" horiz-adv-x="197" 
d="M145 341v-41h-53l-51 -303l-41 6l49 297h-46v41h53l43 259h-96v41h146l-50 -300h46z" />
    <glyph glyph-name="eight" unicode="8" horiz-adv-x="236" 
d="M125 397q35 -35 51 -81.5t16 -94.5q0 -32 -4.5 -64t-16 -62t-30 -56t-45.5 -44q-27 18 -45.5 44t-30 56t-16 62t-4.5 64q0 48 16 95t51 82q-18 23 -30 51t-12 58q0 43 21 78.5t49 64.5q30 -29 51 -64t21 -79q0 -30 -11.5 -58.5t-30.5 -51.5zM96 587q-12 -17 -20.5 -37.5
t-8.5 -42.5t8.5 -42t20.5 -37q13 17 21 37t8 42t-8 42.5t-21 37.5zM96 48q15 16 25.5 37t17 44t9 46.5t2.5 45.5q0 39 -12 78.5t-41 68.5l-2 -2v1q-29 -29 -41 -68t-12 -78q0 -22 2.5 -45.5t8.5 -46.5t16.5 -44t26.5 -37z" />
    <glyph glyph-name="nine" unicode="9" horiz-adv-x="238" 
d="M192 321q0 -32 -2 -69.5t-8 -75.5t-17 -74t-28 -64q-5 -9 -13 -19t-17 -16l-17 -11l-23 34l17 12q9 6 17.5 21.5t15.5 33.5t11.5 35t6.5 27q-34 16 -59.5 42t-42 58t-25 68t-8.5 73q0 32 4 68t14.5 70t29.5 63t48 49l11 -8q9 -6 17 -16t13 -19q17 -29 28 -64.5t17 -73
t8 -75t2 -69.5zM42 396q0 -60 23.5 -113t77.5 -85q4 31 5.5 61.5t1.5 61.5q0 28 -2 65t-8 74.5t-16.5 72t-28.5 58.5q-16 -19 -26 -43t-16 -50t-8.5 -52.5t-2.5 -49.5z" />
    <glyph glyph-name="colon" unicode=":" horiz-adv-x="92" 
d="M42 404v-92h-42v92h42zM0 -13v92h42v-92h-42z" />
    <glyph glyph-name="semicolon" unicode=";" horiz-adv-x="92" 
d="M42 79v-142h-42v142h42zM42 404v-92h-42v92h42z" />
    <glyph glyph-name="less" unicode="&#x3c;" horiz-adv-x="198" 
d="M119 129l-119 179l119 179l35 -23l-104 -156l104 -156z" />
    <glyph glyph-name="equal" unicode="=" horiz-adv-x="189" 
d="M0 377h142v-41h-142v41zM0 302h142v-41h-142v41z" />
    <glyph glyph-name="greater" unicode="&#x3e;" horiz-adv-x="203" 
d="M0 152l104 156l-104 156l35 23l119 -179l-119 -179z" />
    <glyph glyph-name="question" unicode="?" horiz-adv-x="192" 
d="M149 446q0 -62 -23.5 -119.5t-76.5 -92.5v-84h-42v96v12q54 28 77 78.5t23 109.5q0 22 -6 45.5t-17 44.5t-27.5 38t-37.5 28l-19 9l19 37l18 -9q27 -13 47.5 -34t35 -47t22 -55t7.5 -57zM49 91v-91h-42v91h42z" />
    <glyph glyph-name="at" unicode="@" horiz-adv-x="293" 
d="M242 125h-21h-157v366h114v-325h22v434h-158v-559h158v50h42v-91h-242v641h242v-516zM136 166v284h-30v-284h30z" />
    <glyph glyph-name="A" unicode="A" 
d="M167 -1h-42v300h-83v-300h-42v342q0 28 3 70.5t10.5 86t20.5 81t35 57.5q3 3 6 5.5t7 5.5q3 -3 6.5 -5.5t6.5 -5.5q22 -19 36 -57t21.5 -81.5t10.5 -86t4 -70.5v-342zM82 584q-12 -24 -19.5 -55t-12 -64t-6.5 -65t-2 -59h83q0 27 -2 59t-7 65t-13 64t-21 55z" />
    <glyph glyph-name="B" unicode="B" horiz-adv-x="210" 
d="M85 324q45 -23 63.5 -64.5t18.5 -89.5q0 -35 -10 -69t-36 -59q-19 -19 -46 -31t-53 -12h-22v642h21q21 0 41 -10t34 -24q27 -26 36.5 -64t9.5 -73q0 -40 -12 -80t-45 -66zM100 470q0 17 -2.5 36t-8.5 36t-17.5 31t-29.5 21v-248q18 7 29.5 21t17.5 31t8.5 36t2.5 36z
M42 44q46 11 64.5 46.5t18.5 79.5t-18.5 79.5t-64.5 46.5v-252v0z" />
    <glyph glyph-name="C" unicode="C" horiz-adv-x="195" 
d="M42 320q0 -32 4 -76t15 -87t32 -78t56 -50l-19 -37l-18 9q-20 11 -34 30q-24 27 -39 62.5t-23.5 74.5t-12 78t-3.5 74t3.5 74t12 78t23.5 74.5t39 62.5q14 18 34 30l18 9l19 -37q-35 -15 -56 -50t-32 -78t-15 -87t-4 -76z" />
    <glyph glyph-name="D" unicode="D" horiz-adv-x="210" 
d="M0 651q8 -3 14.5 -6t14.5 -6q12 -5 24 -14t21 -19q27 -27 45 -61.5t28.5 -72t14.5 -76.5t4 -76q0 -36 -4 -74t-14 -75t-27 -71t-42 -61q-11 -11 -23.5 -21.5t-26.5 -16.5q-8 -3 -14.5 -6t-14.5 -6v662v0zM42 60q25 23 41 54.5t25 66t12.5 70.5t3.5 69t-3.5 69t-12.5 70.5
t-25 66t-41 54.5v-520v0z" />
    <glyph glyph-name="E" unicode="E" horiz-adv-x="184" 
d="M42 599v-108h50v-42h-50v-408h100v-42h-142v642h142v-42h-100z" />
    <glyph glyph-name="F" unicode="F" horiz-adv-x="181" 
d="M142 641v-42h-100v-108h50v-42h-50v-450h-42v642h142z" />
    <glyph glyph-name="G" unicode="G" horiz-adv-x="194" 
d="M100 341h42v-355q-8 4 -15.5 7.5t-14.5 7.5q-10 5 -18.5 13.5t-15.5 16.5q-24 27 -39 62.5t-24 74t-12 78t-3 74.5t3 74.5t12 78t24 74t39 62.5q7 9 15 17t19 13l18 9l19 -37q-35 -15 -56 -50t-32 -78t-15 -86.5t-4 -76.5q0 -30 2.5 -63.5t8.5 -66.5t17.5 -64t29.5 -56
v271z" />
    <glyph glyph-name="H" unicode="H" horiz-adv-x="244" 
d="M192 641v-642h-42v450h-108v-450h-42v642h42v-150h108v150h42z" />
    <glyph glyph-name="I" unicode="I" horiz-adv-x="94" 
d="M42 641v-642h-42v642h42z" />
    <glyph glyph-name="J" unicode="J" horiz-adv-x="194" 
d="M142 641v-655q-8 4 -15.5 7.5t-14.5 7.5q-12 7 -22 16.5t-18 19.5q-24 31 -38.5 68t-22 77t-9.5 80.5t-2 78.5h42q0 -33 1.5 -69t7.5 -71.5t17.5 -69t31.5 -61.5v571h42z" />
    <glyph glyph-name="K" unicode="K" horiz-adv-x="246" 
d="M196 5l-40 -10l-101 379h-13v-375h-42v642h42v-225h12l51 229l41 -9l-54 -241z" />
    <glyph glyph-name="L" unicode="L" horiz-adv-x="183" 
d="M142 41v-42h-142v642h42v-600h100z" />
    <glyph glyph-name="M" unicode="M" horiz-adv-x="244" 
d="M142 647q5 -11 11 -22.5t11 -22.5q9 -20 14.5 -61.5t8.5 -88.5t4 -91.5t1 -68.5v-293h-42v293q0 55 -1.5 109.5t-7.5 109.5l-45 -135l-45 135q-6 -55 -7.5 -109.5t-1.5 -109.5v-293h-42v293q0 24 1 68.5t3.5 91.5t8 88.5t14.5 61.5q5 11 11 22.5t12 22.5l46 -139l46 139
v0z" />
    <glyph glyph-name="N" unicode="N" horiz-adv-x="217" 
d="M0 651l14 -6t15 -6q14 -6 25.5 -15.5t22.5 -20.5q27 -27 44 -61t27.5 -71t14.5 -76t4 -75v-321h-42v321q0 33 -3.5 69t-13 71t-25.5 66.5t-41 54.5v-582h-42v652v0z" />
    <glyph glyph-name="O" unicode="O" horiz-adv-x="237" 
d="M96 645q32 -19 51 -59.5t29 -88.5t13 -96t3 -81t-3 -81t-13 -96t-29 -88.5t-51 -59.5q-32 19 -51 59.5t-29 88.5t-13 95.5t-3 81.5t3 81.5t13 95.5t29 88.5t51 59.5zM96 51q17 25 27.5 59t16.5 70.5t8 73t2 66.5t-2 66.5t-8 73t-16.5 70.5t-27.5 59q-17 -25 -27.5 -59
t-16.5 -70.5t-8 -73t-2 -66.5t2 -66.5t8 -73t16.5 -70.5t27.5 -59z" />
    <glyph glyph-name="P" unicode="P" horiz-adv-x="185" 
d="M142 395q0 -29 -3.5 -66.5t-14 -72.5t-30 -63.5t-52.5 -39.5v-154h-42v642h21q17 0 32.5 -9.5t27.5 -20.5q19 -18 31 -44.5t18.5 -56.5t9 -60t2.5 -55zM42 200q19 14 30.5 38t17.5 51.5t8 55.5t2 50t-2 50t-8 55.5t-17.5 51.5t-30.5 38v-390v0z" />
    <glyph glyph-name="Q" unicode="Q" horiz-adv-x="244" 
d="M200 -24l-23 -35l-93 62q-9 6 -17 16t-13 20q-17 28 -27.5 63t-16.5 72.5t-8 75t-2 70.5t3 81t13 96t29 89t51 59q32 -19 51 -59.5t29 -88.5t13 -96t3 -81t-2.5 -73.5t-9.5 -81t-19.5 -77.5t-32.5 -64zM96 589q-17 -24 -27.5 -58.5t-16.5 -71.5t-8 -73.5t-2 -65.5
q0 -30 2 -66.5t8 -73t16.5 -70.5t27.5 -59q17 25 27.5 59t16.5 70.5t8 73t2 66.5t-2 66.5t-8 73t-16.5 70.5t-27.5 59z" />
    <glyph glyph-name="R" unicode="R" horiz-adv-x="194" 
d="M145 3l-41 -7l-29 177q-16 -14 -33 -20v-154h-42v642h21q17 0 32.5 -9.5t27.5 -20.5q19 -18 31 -44.5t18.5 -56.5t9 -60t2.5 -55q0 -44 -6.5 -90.5t-26.5 -85.5zM42 200q19 14 30.5 38t17.5 51.5t8 55.5t2 50t-2 50t-8 55.5t-17.5 51.5t-30.5 38v-390v0z" />
    <glyph glyph-name="S" unicode="S" horiz-adv-x="183" 
d="M42 470q0 -41 15.5 -76t34.5 -69.5t34.5 -71.5t15.5 -83q0 -26 -9 -51t-23 -47.5t-31.5 -43t-35.5 -37.5l-29 30q14 13 29.5 30.5t28 36.5t20.5 40t8 42q0 41 -15.5 76t-34.5 69.5t-34.5 71.5t-15.5 83q0 26 8.5 51t23 47.5t32 43t35.5 37.5l29 -30q-14 -14 -29.5 -31
t-28 -36t-20.5 -40t-8 -42z" />
    <glyph glyph-name="T" unicode="T" horiz-adv-x="281" 
d="M242 641v-42h-100v-600h-42v600h-100v42h242z" />
    <glyph glyph-name="U" unicode="U" horiz-adv-x="243" 
d="M192 641v-321q0 -33 -3 -81.5t-13 -96.5t-29.5 -88.5t-51.5 -58.5q-32 19 -51 59.5t-28.5 88.5t-12.5 96t-3 81v321h42v-321q0 -30 2 -66.5t7.5 -73t16 -70.5t27.5 -59q18 24 28.5 58t16.5 71t8 73.5t2 66.5v321h42z" />
    <glyph glyph-name="V" unicode="V" horiz-adv-x="239" 
d="M197 638l-99 -786l-98 786l41 5l57 -455l57 455z" />
    <glyph glyph-name="W" unicode="W" horiz-adv-x="242" 
d="M192 641v-292q0 -24 -1 -70t-4 -95t-8.5 -92t-14.5 -62q-5 -12 -11 -23t-11 -22l-46 138l-46 -138l-12 22t-11 23q-9 19 -14.5 62t-8 92t-3.5 95t-1 70v292h42v-292q0 -55 1.5 -114.5t7.5 -114.5l45 135l45 -135q6 55 7.5 114.5t1.5 114.5v292h42z" />
    <glyph glyph-name="X" unicode="X" horiz-adv-x="249" 
d="M201 5l-41 -10l-60 239l-60 -239l-40 10l79 315l-79 315l40 10l60 -239l60 239l41 -10l-79 -315z" />
    <glyph glyph-name="Y" unicode="Y" horiz-adv-x="238" 
d="M192 641q0 -38 -2.5 -82.5t-10.5 -89t-23 -85.5t-39 -72v-313h-42v313q-25 31 -39.5 72t-22.5 85t-10.5 89t-2.5 83h42q0 -35 1.5 -72.5t7.5 -74.5t16.5 -72.5t28.5 -65.5q18 31 28.5 66t16 72t7.5 74.5t2 72.5h42v0z" />
    <glyph glyph-name="Z" unicode="Z" horiz-adv-x="192" 
d="M145 41v-42h-145l100 600h-96v42h145l-100 -600h96z" />
    <glyph glyph-name="bracketleft" unicode="[" horiz-adv-x="183" 
d="M142 600h-100v-559h100v-41h-142v641h142v-41z" />
    <glyph glyph-name="backslash" unicode="\" horiz-adv-x="188" 
d="M41 632l107 -641l-41 -7l-107 641z" />
    <glyph glyph-name="bracketright" unicode="]" horiz-adv-x="194" 
d="M0 41h100v559h-100v41h142v-641h-142v41z" />
    <glyph glyph-name="asciicircum" unicode="^" horiz-adv-x="206" 
d="M0 721l79 79l80 -79l-30 -30l-50 50l-50 -50z" />
    <glyph glyph-name="underscore" unicode="_" horiz-adv-x="200" 
d="M0 41h200v-42h-200v42z" />
    <glyph glyph-name="quoteleft" unicode="&#x2018;" horiz-adv-x="93" 
d="M0 629h42v-156h-42v156z" />
    <glyph glyph-name="a" unicode="a" 
d="M167 341v-342h-42v300h-83v-300h-42v342q0 28 3 70.5t10.5 86t20.5 81t35 57.5q3 3 6 5.5t7 5.5q3 -3 6.5 -5.5t6.5 -5.5q22 -19 36 -57t21.5 -81.5t10.5 -86t4 -70.5zM82 584q-12 -24 -19.5 -55t-12 -64t-6.5 -65t-2 -59h83q0 27 -2 59t-7 65t-13 64t-21 55z" />
    <glyph glyph-name="b" unicode="b" horiz-adv-x="210" 
d="M85 324q45 -23 63.5 -64.5t18.5 -89.5q0 -35 -10 -69t-36 -59q-19 -19 -46 -31t-53 -12h-22v642h21q21 0 41 -10t34 -24q27 -26 36.5 -64t9.5 -73q0 -40 -12 -80t-45 -66zM100 470q0 17 -2.5 36t-8.5 36t-17.5 31t-29.5 21v-248q18 7 29.5 21t17.5 31t8.5 36t2.5 36z
M42 44q46 11 64.5 46.5t18.5 79.5t-18.5 79.5t-64.5 46.5v-252z" />
    <glyph glyph-name="c" unicode="c" horiz-adv-x="195" 
d="M42 320q0 -32 4 -76t15 -87t32 -78t56 -50l-19 -37l-18 9q-20 11 -34 30q-24 27 -39 62.5t-23.5 74.5t-12 78t-3.5 74t3.5 74t12 78t23.5 74.5t39 62.5q14 18 34 30l18 9l19 -37q-35 -15 -56 -50t-32 -78t-15 -87t-4 -76z" />
    <glyph glyph-name="d" unicode="d" horiz-adv-x="210" 
d="M0 651q8 -3 14.5 -6t14.5 -6q12 -5 24 -14t21 -19q27 -27 45 -61.5t28.5 -72t14.5 -76.5t4 -76q0 -36 -4 -74t-14 -75t-27 -71t-42 -61q-11 -11 -23.5 -21.5t-26.5 -16.5q-8 -3 -14.5 -6t-14.5 -6v662zM42 60q25 23 41 54.5t25 66t12.5 70.5t3.5 69t-3.5 69t-12.5 70.5
t-25 66t-41 54.5v-520z" />
    <glyph glyph-name="e" unicode="e" horiz-adv-x="184" 
d="M142 599h-100v-108h50v-42h-50v-408h100v-42h-142v642h142v-42z" />
    <glyph glyph-name="f" unicode="f" horiz-adv-x="159" 
d="M0 641h142v-42h-100v-108h50v-42h-50v-450h-42v642z" />
    <glyph glyph-name="g" unicode="g" horiz-adv-x="194" 
d="M100 70v271h42v-355q-8 4 -15.5 7.5t-14.5 7.5q-10 5 -18.5 13.5t-15.5 16.5q-24 27 -39 62.5t-24 74t-12 78t-3 74.5t3 74.5t12 78t24 74t39 62.5q7 9 15 17t19 13l18 9l19 -37q-35 -15 -56 -50t-32 -78t-15 -86.5t-4 -76.5q0 -30 2.5 -63.5t8.5 -66.5t17.5 -64
t29.5 -56z" />
    <glyph glyph-name="h" unicode="h" horiz-adv-x="244" 
d="M150 641h42v-642h-42v450h-108v-450h-42v642h42v-150h108v150z" />
    <glyph glyph-name="i" unicode="i" horiz-adv-x="94" 
d="M0 641h42v-642h-42v642z" />
    <glyph glyph-name="j" unicode="j" horiz-adv-x="194" 
d="M100 641h42v-655q-8 4 -15.5 7.5t-14.5 7.5q-12 7 -22 16.5t-18 19.5q-24 31 -38.5 68t-22 77t-9.5 80.5t-2 78.5h42q0 -33 1.5 -69t7.5 -71.5t17.5 -69t31.5 -61.5v571z" />
    <glyph glyph-name="k" unicode="k" horiz-adv-x="246" 
d="M92 395l104 -390l-40 -10l-101 379h-13v-375h-42v642h42v-225h12l51 229l41 -9z" />
    <glyph glyph-name="l" unicode="l" horiz-adv-x="183" 
d="M42 41h100v-42h-142v642h42v-600z" />
    <glyph glyph-name="m" unicode="m" horiz-adv-x="244" 
d="M142 647q5 -11 11 -22.5t11 -22.5q9 -20 14.5 -61.5t8.5 -88.5t4 -91.5t1 -68.5v-293h-42v293q0 55 -1.5 109.5t-7.5 109.5l-45 -135l-45 135q-6 -55 -7.5 -109.5t-1.5 -109.5v-293h-42v293q0 24 1 68.5t3.5 91.5t8 88.5t14.5 61.5q5 11 11 22.5t12 22.5l46 -139z" />
    <glyph glyph-name="n" unicode="n" horiz-adv-x="217" 
d="M0 651l14 -6t15 -6q14 -6 25.5 -15.5t22.5 -20.5q27 -27 44 -61t27.5 -71t14.5 -76t4 -75v-321h-42v321q0 33 -3.5 69t-13 71t-25.5 66.5t-41 54.5v-582h-42v652z" />
    <glyph glyph-name="o" unicode="o" horiz-adv-x="237" 
d="M96 645q32 -19 51 -59.5t29 -88.5t13 -96t3 -81t-3 -81t-13 -96t-29 -88.5t-51 -59.5q-32 19 -51 59.5t-29 88.5t-13 95.5t-3 81.5t3 81.5t13 95.5t29 88.5t51 59.5zM96 51q17 25 27.5 59t16.5 70.5t8 73t2 66.5t-2 66.5t-8 73t-16.5 70.5t-27.5 59q-17 -25 -27.5 -59
t-16.5 -70.5t-8 -73t-2 -66.5t2 -66.5t8 -73t16.5 -70.5t27.5 -59z" />
    <glyph glyph-name="p" unicode="p" horiz-adv-x="185" 
d="M142 395q0 -29 -3.5 -66.5t-14 -72.5t-30 -63.5t-52.5 -39.5v-154h-42v642h21q17 0 32.5 -9.5t27.5 -20.5q19 -18 31 -44.5t18.5 -56.5t9 -60t2.5 -55zM42 200q19 14 30.5 38t17.5 51.5t8 55.5t2 50t-2 50t-8 55.5t-17.5 51.5t-30.5 38v-390z" />
    <glyph glyph-name="q" unicode="q" horiz-adv-x="244" 
d="M128 24l72 -48l-23 -35l-93 62q-9 6 -17 16t-13 20q-17 28 -27.5 63t-16.5 72.5t-8 75t-2 70.5t3 81t13 96t29 89t51 59q32 -19 51 -59.5t29 -88.5t13 -96t3 -81t-2.5 -73.5t-9.5 -81t-19.5 -77.5t-32.5 -64zM96 589q-17 -24 -27.5 -58.5t-16.5 -71.5t-8 -73.5t-2 -65.5
q0 -30 2 -66.5t8 -73t16.5 -70.5t27.5 -59q17 25 27.5 59t16.5 70.5t8 73t2 66.5t-2 66.5t-8 73t-16.5 70.5t-27.5 59z" />
    <glyph glyph-name="r" unicode="r" horiz-adv-x="194" 
d="M109 219l36 -216l-41 -7l-29 177q-16 -14 -33 -20v-154h-42v642h21q17 0 32.5 -9.5t27.5 -20.5q19 -18 31 -44.5t18.5 -56.5t9 -60t2.5 -55q0 -44 -6.5 -90.5t-26.5 -85.5zM42 200q19 14 30.5 38t17.5 51.5t8 55.5t2 50t-2 50t-8 55.5t-17.5 51.5t-30.5 38v-390z" />
    <glyph glyph-name="s" unicode="s" horiz-adv-x="183" 
d="M42 470q0 -41 15.5 -76t34.5 -69.5t34.5 -71.5t15.5 -83q0 -26 -9 -51t-23 -47.5t-31.5 -43t-35.5 -37.5l-29 30q14 13 29.5 30.5t28 36.5t20.5 40t8 42q0 41 -15.5 76t-34.5 69.5t-34.5 71.5t-15.5 83q0 26 8.5 51t23 47.5t32 43t35.5 37.5l29 -30q-14 -14 -29.5 -31
t-28 -36t-20.5 -40t-8 -42z" />
    <glyph glyph-name="t" unicode="t" horiz-adv-x="281" 
d="M0 641h242v-42h-100v-600h-42v600h-100v42z" />
    <glyph glyph-name="u" unicode="u" horiz-adv-x="243" 
d="M150 641h42v-321q0 -33 -3 -81.5t-13 -96.5t-29.5 -88.5t-51.5 -58.5q-32 19 -51 59.5t-28.5 88.5t-12.5 96t-3 81v321h42v-321q0 -30 2 -66.5t7.5 -73t16 -70.5t27.5 -59q18 24 28.5 58t16.5 71t8 73.5t2 66.5v321z" />
    <glyph glyph-name="v" unicode="v" horiz-adv-x="239" 
d="M155 643l42 -5l-99 -786l-98 786l41 5l57 -455z" />
    <glyph glyph-name="w" unicode="w" horiz-adv-x="242" 
d="M150 641h42v-292q0 -24 -1 -70t-4 -95t-8.5 -92t-14.5 -62q-5 -12 -11 -23t-11 -22l-46 138l-46 -138l-12 22t-11 23q-9 19 -14.5 62t-8 92t-3.5 95t-1 70v292h42v-292q0 -55 1.5 -114.5t7.5 -114.5l45 135l45 -135q6 55 7.5 114.5t1.5 114.5v292z" />
    <glyph glyph-name="x" unicode="x" horiz-adv-x="249" 
d="M122 320l79 -315l-41 -10l-60 239l-60 -239l-40 10l79 315l-79 315l40 10l60 -239l60 239l41 -10z" />
    <glyph glyph-name="y" unicode="y" horiz-adv-x="238" 
d="M192 641q0 -38 -2.5 -82.5t-10.5 -89t-23 -85.5t-39 -72v-313h-42v313q-25 31 -39.5 72t-22.5 85t-10.5 89t-2.5 83h42q0 -35 1.5 -72.5t7.5 -74.5t16.5 -72.5t28.5 -65.5q18 31 28.5 66t16 72t7.5 74.5t2 72.5h42z" />
    <glyph glyph-name="z" unicode="z" horiz-adv-x="192" 
d="M49 41h96v-42h-145l100 600h-96v42h145z" />
    <glyph glyph-name="braceleft" unicode="{" horiz-adv-x="175" 
d="M126 621q-23 -23 -41 -51t-18 -63q0 -16 2.5 -36.5t7.5 -41t13.5 -39t20.5 -30.5l21 -20l-39 -19q10 -5 19.5 -10t19.5 -10l-21 -20q-12 -12 -20.5 -33t-13.5 -44t-7.5 -45t-2.5 -38q0 -29 20 -55t39 -46l-29 -29q-26 26 -48.5 58.5t-22.5 71.5q0 42 8.5 86t30.5 81
l-65 33l65 32q-21 34 -30 74t-9 80q0 44 20.5 79t50.5 64z" />
    <glyph glyph-name="bar" unicode="|" horiz-adv-x="94" 
d="M42 665v-714h-42v714h42z" />
    <glyph glyph-name="braceright" unicode="}" horiz-adv-x="174" 
d="M6 21q23 23 40.5 50.5t17.5 62.5q0 16 -2 36.5t-7.5 41t-13.5 39t-20 30.5l-21 20l39 20q-10 5 -19.5 9.5t-19.5 9.5l20 20q12 12 20.5 33t14 44t7.5 45.5t2 38.5q0 28 -19.5 54t-38.5 46l29 29q26 -26 48.5 -58.5t22.5 -70.5q0 -43 -8.5 -87t-30.5 -81l65 -32l-65 -33
q21 -34 30 -74t9 -80q0 -44 -21 -79t-50 -64z" />
    <glyph glyph-name="asciitilde" unicode="~" horiz-adv-x="194" 
d="M142 800v-21q0 -11 -2 -23t-7.5 -23t-14.5 -18t-22 -7q-11 0 -18.5 4.5t-13 11.5t-9.5 15.5t-9 16.5q-5 -11 -4.5 -23.5t0.5 -24.5h-42v21q0 11 2 23.5t7.5 23t14 17.5t22.5 7q11 0 18.5 -4.5t12.5 -11.5t9 -15.5t9 -15.5q5 11 5 23.5v23.5h42z" />
    <glyph glyph-name="sterling" unicode="&#xa3;" horiz-adv-x="271" 
d="M121 300q0 -29 -2 -62.5t-5.5 -68.5t-10.5 -68t-18 -60h94v150h42v-191h-221l35 35q2 2 5.5 9.5t5.5 10.5q10 25 16.5 56.5t10 64.5t5 65t1.5 59h-50v41h50q0 27 -1.5 59t-5 65t-10 64.5t-16.5 56.5q-2 3 -5.5 10.5t-5.5 9.5l-35 35h171v-41h-86q11 -27 18 -60t10.5 -68
t5.5 -69t2 -62h100v-41h-100v0z" />
    <glyph glyph-name="quotesingle" unicode="'" horiz-adv-x="93" 
d="M42 629v-156h-42v156h42z" />
    <glyph glyph-name="quotedblleft" unicode="&#x201c;" horiz-adv-x="193" 
d="M0 629h42v-156h-42v156zM100 629h42v-156h-42v156z" />
    <glyph glyph-name="bullet" unicode="&#x2022;" horiz-adv-x="201" 
d="M0 203v234l156 -117z" />
    <glyph glyph-name="quotedblright" unicode="&#x201d;" horiz-adv-x="193" 
d="M0 629h42v-156h-42v156zM100 629h42v-156h-42v156z" />
    <glyph glyph-name="grave" unicode="`" horiz-adv-x="201" 
d="M19 800l137 -69l-19 -37l-137 69z" />
    <glyph glyph-name="acute" unicode="&#xb4;" horiz-adv-x="200" 
d="M156 763l-137 -69l-19 37l137 69z" />
    <glyph glyph-name="dieresis" unicode="&#xa8;" horiz-adv-x="193" 
d="M42 799v-91h-42v91h42zM142 799v-91h-42v91h42z" />
    <glyph glyph-name="ring" horiz-adv-x="190" 
d="M71 800q31 0 51 -20t20 -51q0 -30 -20 -50.5t-51 -20.5t-51 20.5t-20 50.5q0 31 20 51t51 20zM100 729q0 29 -29 29t-29 -29t29 -29t29 29z" />
    <glyph glyph-name="Adieresis" unicode="&#xc4;" 
d="M167 -1h-42v300h-83v-300h-42v342q0 28 3 70.5t10.5 86t20.5 81t35 57.5q3 3 6 5.5t7 5.5q3 -3 6.5 -5.5t6.5 -5.5q22 -19 36 -57t21.5 -81.5t10.5 -86t4 -70.5v-342zM82 584q-12 -24 -19.5 -55t-12 -64t-6.5 -65t-2 -59h83q0 27 -2 59t-7 65t-13 64t-21 55zM55 799v-91
h-42v91h42zM155 799v-91h-42v91h42z" />
    <glyph glyph-name="Aring" unicode="&#xc5;" 
d="M167 -1h-42v300h-83v-300h-42v342q0 28 3 70.5t10.5 86t20.5 81t35 57.5q3 3 6 5.5t7 5.5q3 -3 6.5 -5.5t6.5 -5.5q22 -19 36 -57t21.5 -81.5t10.5 -86t4 -70.5v-342zM82 584q-12 -24 -19.5 -55t-12 -64t-6.5 -65t-2 -59h83q0 27 -2 59t-7 65t-13 64t-21 55zM84 800
q31 0 51 -20t20 -51q0 -30 -20 -50.5t-51 -20.5t-51 20.5t-20 50.5q0 31 20 51t51 20zM113 729q0 29 -29 29t-29 -29t29 -29t29 29z" />
    <glyph glyph-name="Ccedilla" unicode="&#xc7;" horiz-adv-x="195" 
d="M42 320q0 -30 3.5 -73t14 -85t30.5 -77.5t52 -51.5v-13q0 -17 -3 -37.5t-11 -39.5t-22 -31.5t-35 -12.5h-21v42h21q8 0 13.5 8.5t8.5 20t5 23t2 16.5q-31 24 -50.5 62t-30.5 81.5t-15 87.5t-4 80q0 35 3 73.5t11.5 77t23.5 73.5t38 63q7 8 16.5 17.5t19.5 14.5l18 9
l19 -37l-19 -9q-6 -4 -14.5 -13.5t-13.5 -14.5q-18 -25 -30 -56.5t-18.5 -65.5t-9 -68t-2.5 -64z" />
    <glyph glyph-name="Eacute" unicode="&#xc9;" horiz-adv-x="184" 
d="M42 599v-108h50v-42h-50v-408h100v-42h-142v642h142v-42h-100zM156 763l-137 -69l-19 37l137 69z" />
    <glyph glyph-name="Ntilde" unicode="&#xd1;" horiz-adv-x="217" 
d="M0 651l14 -6t15 -6q14 -6 25.5 -15.5t22.5 -20.5q27 -27 44 -61t27.5 -71t14.5 -76t4 -75v-321h-42v321q0 33 -3.5 69t-13 71t-25.5 66.5t-41 54.5v-582h-42v652v0zM142 800v-21q0 -11 -2 -23t-7.5 -23t-14.5 -18t-22 -7q-11 0 -18.5 4.5t-13 11.5t-9.5 15.5t-9 16.5
q-5 -11 -4.5 -23.5t0.5 -24.5h-42v21q0 11 2 23.5t7.5 23t14 17.5t22.5 7q11 0 18.5 -4.5t12.5 -11.5t9 -15.5t9 -15.5q5 11 5 23.5v23.5h42z" />
    <glyph glyph-name="Odieresis" unicode="&#xd6;" horiz-adv-x="237" 
d="M96 645q32 -19 51 -59.5t29 -88.5t13 -96t3 -81t-3 -81t-13 -96t-29 -88.5t-51 -59.5q-32 19 -51 59.5t-29 88.5t-13 95.5t-3 81.5t3 81.5t13 95.5t29 88.5t51 59.5zM96 51q17 25 27.5 59t16.5 70.5t8 73t2 66.5t-2 66.5t-8 73t-16.5 70.5t-27.5 59q-17 -25 -27.5 -59
t-16.5 -70.5t-8 -73t-2 -66.5t2 -66.5t8 -73t16.5 -70.5t27.5 -59zM70 799v-91h-42v91h42zM170 799v-91h-42v91h42z" />
    <glyph glyph-name="Udieresis" unicode="&#xdc;" horiz-adv-x="243" 
d="M192 641v-321q0 -33 -3 -81.5t-13 -96.5t-29.5 -88.5t-51.5 -58.5q-32 19 -51 59.5t-28.5 88.5t-12.5 96t-3 81v321h42v-321q0 -30 2 -66.5t7.5 -73t16 -70.5t27.5 -59q18 24 28.5 58t16.5 71t8 73.5t2 66.5v321h42zM68 799v-91h-42v91h42zM168 799v-91h-42v91h42z" />
    <glyph glyph-name="aacute" unicode="&#xe1;" 
d="M167 -1h-42v300h-83v-300h-42v342q0 28 3 70.5t10.5 86t20.5 81t35 57.5q3 3 6 5.5t7 5.5q3 -3 6.5 -5.5t6.5 -5.5q22 -19 36 -57t21.5 -81.5t10.5 -86t4 -70.5v-342zM82 584q-12 -24 -19.5 -55t-12 -64t-6.5 -65t-2 -59h83q0 27 -2 59t-7 65t-13 64t-21 55zM156 763
l-137 -69l-19 37l137 69z" />
    <glyph glyph-name="agrave" unicode="&#xe0;" 
d="M167 -1h-42v300h-83v-300h-42v342q0 28 3 70.5t10.5 86t20.5 81t35 57.5q3 3 6 5.5t7 5.5q3 -3 6.5 -5.5t6.5 -5.5q22 -19 36 -57t21.5 -81.5t10.5 -86t4 -70.5v-342zM82 584q-12 -24 -19.5 -55t-12 -64t-6.5 -65t-2 -59h83q0 27 -2 59t-7 65t-13 64t-21 55zM19 800
l137 -69l-19 -37l-137 69z" />
    <glyph glyph-name="acircumflex" unicode="&#xe2;" 
d="M167 -1h-42v300h-83v-300h-42v342q0 28 3 70.5t10.5 86t20.5 81t35 57.5q3 3 6 5.5t7 5.5q3 -3 6.5 -5.5t6.5 -5.5q22 -19 36 -57t21.5 -81.5t10.5 -86t4 -70.5v-342zM82 584q-12 -24 -19.5 -55t-12 -64t-6.5 -65t-2 -59h83q0 27 -2 59t-7 65t-13 64t-21 55zM4 721l79 79
l80 -79l-30 -30l-50 50l-50 -50z" />
    <glyph glyph-name="adieresis" unicode="&#xe4;" 
d="M167 341v-342h-42v300h-83v-300h-42v342q0 28 3 70.5t10.5 86t20.5 81t35 57.5q3 3 6 5.5t7 5.5q3 -3 6.5 -5.5t6.5 -5.5q22 -19 36 -57t21.5 -81.5t10.5 -86t4 -70.5zM82 584q-12 -24 -19.5 -55t-12 -64t-6.5 -65t-2 -59h83q0 27 -2 59t-7 65t-13 64t-21 55zM13 799h41
v-91h-41v91zM113 799h41v-91h-41v91z" />
    <glyph glyph-name="atilde" unicode="&#xe3;" 
d="M167 -1h-42v300h-83v-300h-42v342q0 28 3 70.5t10.5 86t20.5 81t35 57.5q3 3 6 5.5t7 5.5q3 -3 6.5 -5.5t6.5 -5.5q22 -19 36 -57t21.5 -81.5t10.5 -86t4 -70.5v-342zM82 584q-12 -24 -19.5 -55t-12 -64t-6.5 -65t-2 -59h83q0 27 -2 59t-7 65t-13 64t-21 55zM152 800v-21
q0 -11 -2 -23t-7.5 -23t-14.5 -18t-22 -7q-11 0 -18.5 4.5t-13 11.5t-9.5 15.5t-9 16.5q-5 -11 -4.5 -23.5t0.5 -24.5h-42v21q0 11 2 23.5t7.5 23t14 17.5t22.5 7q11 0 18.5 -4.5t12.5 -11.5t9 -15.5t9 -15.5q5 11 5 23.5v23.5h42z" />
    <glyph glyph-name="aring" unicode="&#xe5;" 
d="M167 341v-342h-42v300h-83v-300h-42v342q0 28 3 70.5t10.5 86t20.5 81t35 57.5q3 3 6 5.5t7 5.5q3 -3 6.5 -5.5t6.5 -5.5q22 -19 36 -57t21.5 -81.5t10.5 -86t4 -70.5zM82 584q-12 -24 -19.5 -55t-12 -64t-6.5 -65t-2 -59h83q0 27 -2 59t-7 65t-13 64t-21 55zM84 800
q31 0 51 -20t20 -51q0 -30 -20 -50.5t-51 -20.5t-51 20.5t-20 50.5q0 31 20 51t51 20zM113 729q0 29 -29 29t-29 -29t29 -29t29 29z" />
    <glyph glyph-name="ccedilla" unicode="&#xe7;" horiz-adv-x="195" 
d="M42 320q0 -30 3.5 -73t14 -85t30.5 -77.5t52 -51.5v-13q0 -17 -3 -37.5t-11 -39.5t-22 -31.5t-35 -12.5h-21v42h21q8 0 13.5 8.5t8.5 20t5 23t2 16.5q-31 24 -50.5 62t-30.5 81.5t-15 87.5t-4 80q0 35 3 73.5t11.5 77t23.5 73.5t38 63q7 8 16.5 17.5t19.5 14.5l18 9
l19 -37l-19 -9q-6 -4 -14.5 -13.5t-13.5 -14.5q-18 -25 -30 -56.5t-18.5 -65.5t-9 -68t-2.5 -64z" />
    <glyph glyph-name="eacute" unicode="&#xe9;" horiz-adv-x="184" 
d="M142 599h-100v-108h50v-42h-50v-408h100v-42h-142v642h142v-42zM137 800l19 -37l-137 -69l-19 37z" />
    <glyph glyph-name="egrave" unicode="&#xe8;" horiz-adv-x="184" 
d="M42 599v-108h50v-42h-50v-408h100v-42h-142v642h142v-42h-100zM19 800l137 -69l-19 -37l-137 69z" />
    <glyph glyph-name="ecircumflex" unicode="&#xea;" horiz-adv-x="184" 
d="M42 599v-108h50v-42h-50v-408h100v-42h-142v642h142v-42h-100zM0 721l79 79l80 -79l-30 -30l-50 50l-50 -50z" />
    <glyph glyph-name="edieresis" unicode="&#xeb;" horiz-adv-x="184" 
d="M42 599v-108h50v-42h-50v-408h100v-42h-142v642h142v-42h-100zM42 799v-91h-42v91h42zM142 799v-91h-42v91h42z" />
    <glyph glyph-name="iacute" unicode="&#xed;" horiz-adv-x="94" 
d="M42 641v-642h-42v642h42zM156 763l-137 -69l-19 37l137 69z" />
    <glyph glyph-name="igrave" unicode="&#xec;" horiz-adv-x="94" 
d="M42 641v-642h-42v642h42zM19 800l137 -69l-19 -37l-137 69z" />
    <glyph glyph-name="icircumflex" unicode="&#xee;" horiz-adv-x="94" 
d="M42 641v-642h-42v642h42zM0 721l79 79l80 -79l-30 -30l-50 50l-50 -50z" />
    <glyph glyph-name="idieresis" unicode="&#xef;" horiz-adv-x="94" 
d="M42 641v-642h-42v642h42zM42 799v-91h-42v91h42zM142 799v-91h-42v91h42z" />
    <glyph glyph-name="ntilde" unicode="&#xf1;" horiz-adv-x="217" 
d="M0 651l14 -6t15 -6q14 -6 25.5 -15.5t22.5 -20.5q27 -27 44 -61t27.5 -71t14.5 -76t4 -75v-321h-42v321q0 33 -3.5 69t-13 71t-25.5 66.5t-41 54.5v-582h-42v652zM100 800h42v-21q0 -11 -2 -23t-7.5 -23t-14.5 -18t-22 -7q-11 0 -18.5 4.5t-13 11.5t-9.5 15.5t-9 16.5
q-5 -11 -4.5 -23.5t0.5 -24.5h-42v21q0 11 2 23.5t7.5 23t14 17.5t22.5 7q11 0 18.5 -4.5t12.5 -11.5t9 -15.5t9 -15.5q5 11 5 23.5v23.5z" />
    <glyph glyph-name="oacute" unicode="&#xf3;" horiz-adv-x="237" 
d="M96 645q32 -19 51 -59.5t29 -88.5t13 -96t3 -81t-3 -81t-13 -96t-29 -88.5t-51 -59.5q-32 19 -51 59.5t-29 88.5t-13 95.5t-3 81.5t3 81.5t13 95.5t29 88.5t51 59.5zM96 51q17 25 27.5 59t16.5 70.5t8 73t2 66.5t-2 66.5t-8 73t-16.5 70.5t-27.5 59q-17 -25 -27.5 -59
t-16.5 -70.5t-8 -73t-2 -66.5t2 -66.5t8 -73t16.5 -70.5t27.5 -59zM176 763l-137 -69l-19 37l137 69z" />
    <glyph glyph-name="ograve" unicode="&#xf2;" horiz-adv-x="237" 
d="M96 645q32 -19 51 -59.5t29 -88.5t13 -96t3 -81t-3 -81t-13 -96t-29 -88.5t-51 -59.5q-32 19 -51 59.5t-29 88.5t-13 95.5t-3 81.5t3 81.5t13 95.5t29 88.5t51 59.5zM96 51q17 25 27.5 59t16.5 70.5t8 73t2 66.5t-2 66.5t-8 73t-16.5 70.5t-27.5 59q-17 -25 -27.5 -59
t-16.5 -70.5t-8 -73t-2 -66.5t2 -66.5t8 -73t16.5 -70.5t27.5 -59zM29 800l137 -69l-19 -37l-137 69z" />
    <glyph glyph-name="ocircumflex" unicode="&#xf4;" horiz-adv-x="237" 
d="M96 645q32 -19 51 -59.5t29 -88.5t13 -96t3 -81t-3 -81t-13 -96t-29 -88.5t-51 -59.5q-32 19 -51 59.5t-29 88.5t-13 95.5t-3 81.5t3 81.5t13 95.5t29 88.5t51 59.5zM96 51q17 25 27.5 59t16.5 70.5t8 73t2 66.5t-2 66.5t-8 73t-16.5 70.5t-27.5 59q-17 -25 -27.5 -59
t-16.5 -70.5t-8 -73t-2 -66.5t2 -66.5t8 -73t16.5 -70.5t27.5 -59zM17 721l79 79l80 -79l-30 -30l-50 50l-50 -50z" />
    <glyph glyph-name="odieresis" unicode="&#xf6;" horiz-adv-x="237" 
d="M96 645q32 -19 51 -59.5t29 -88.5t13 -96t3 -81t-3 -81t-13 -96t-29 -88.5t-51 -59.5q-32 19 -51 59.5t-29 88.5t-13 95.5t-3 81.5t3 81.5t13 95.5t29 88.5t51 59.5zM96 51q17 25 27.5 59t16.5 70.5t8 73t2 66.5t-2 66.5t-8 73t-16.5 70.5t-27.5 59q-17 -25 -27.5 -59
t-16.5 -70.5t-8 -73t-2 -66.5t2 -66.5t8 -73t16.5 -70.5t27.5 -59zM28 799h42v-91h-42v91zM128 799h42v-91h-42v91z" />
    <glyph glyph-name="otilde" unicode="&#xf5;" horiz-adv-x="237" 
d="M96 645q32 -19 51 -59.5t29 -88.5t13 -96t3 -81t-3 -81t-13 -96t-29 -88.5t-51 -59.5q-32 19 -51 59.5t-29 88.5t-13 95.5t-3 81.5t3 81.5t13 95.5t29 88.5t51 59.5zM96 51q17 25 27.5 59t16.5 70.5t8 73t2 66.5t-2 66.5t-8 73t-16.5 70.5t-27.5 59q-17 -25 -27.5 -59
t-16.5 -70.5t-8 -73t-2 -66.5t2 -66.5t8 -73t16.5 -70.5t27.5 -59zM159 800v-21q0 -11 -2 -23t-7.5 -23t-14.5 -18t-22 -7q-11 0 -18.5 4.5t-13 11.5t-9.5 15.5t-9 16.5q-5 -11 -4.5 -23.5t0.5 -24.5h-42v21q0 11 2 23.5t7.5 23t14 17.5t22.5 7q11 0 18.5 -4.5t12.5 -11.5
t9 -15.5t9 -15.5q5 11 5 23.5v23.5h42z" />
    <glyph glyph-name="uacute" unicode="&#xfa;" horiz-adv-x="243" 
d="M192 641v-321q0 -33 -3 -81.5t-13 -96.5t-29.5 -88.5t-51.5 -58.5q-32 19 -51 59.5t-28.5 88.5t-12.5 96t-3 81v321h42v-321q0 -30 2 -66.5t7.5 -73t16 -70.5t27.5 -59q18 24 28.5 58t16.5 71t8 73.5t2 66.5v321h42zM166 763l-137 -69l-19 37l137 69z" />
    <glyph glyph-name="ugrave" unicode="&#xf9;" horiz-adv-x="243" 
d="M192 641v-321q0 -33 -3 -81.5t-13 -96.5t-29.5 -88.5t-51.5 -58.5q-32 19 -51 59.5t-28.5 88.5t-12.5 96t-3 81v321h42v-321q0 -30 2 -66.5t7.5 -73t16 -70.5t27.5 -59q18 24 28.5 58t16.5 71t8 73.5t2 66.5v321h42zM29 800l137 -69l-19 -37l-137 69z" />
    <glyph glyph-name="ucircumflex" unicode="&#xfb;" horiz-adv-x="243" 
d="M192 641v-321q0 -33 -3 -81.5t-13 -96.5t-29.5 -88.5t-51.5 -58.5q-32 19 -51 59.5t-28.5 88.5t-12.5 96t-3 81v321h42v-321q0 -30 2 -66.5t7.5 -73t16 -70.5t27.5 -59q18 24 28.5 58t16.5 71t8 73.5t2 66.5v321h42zM17 721l79 79l80 -79l-30 -30l-50 50l-50 -50z" />
    <glyph glyph-name="udieresis" unicode="&#xfc;" horiz-adv-x="243" 
d="M150 641h42v-321q0 -33 -3 -81.5t-13 -96.5t-29.5 -88.5t-51.5 -58.5q-32 19 -51 59.5t-28.5 88.5t-12.5 96t-3 81v321h42v-321q0 -30 2 -66.5t7.5 -73t16 -70.5t27.5 -59q18 24 28.5 58t16.5 71t8 73.5t2 66.5v321zM26 799h41v-91h-41v91zM126 799h41v-91h-41v91z" />
    <glyph glyph-name="nonbreakingspace" unicode="&#xa0;" horiz-adv-x="142" 
 />
    <glyph glyph-name="Agrave" unicode="&#xc0;" 
d="M167 341v-342h-42v300h-83v-300h-42v342q0 28 3 70.5t10.5 86t20.5 81t35 57.5q3 3 6 5.5t7 5.5q3 -3 6.5 -5.5t6.5 -5.5q22 -19 36 -57t21.5 -81.5t10.5 -86t4 -70.5zM82 584q-12 -24 -19.5 -55t-12 -64t-6.5 -65t-2 -59h83q0 27 -2 59t-7 65t-13 64t-21 55zM0 763
l19 37l137 -69l-19 -37z" />
    <glyph glyph-name="Atilde" unicode="&#xc3;" 
d="M167 341v-342h-42v300h-83v-300h-42v342q0 28 3 70.5t10.5 86t20.5 81t35 57.5q3 3 6 5.5t7 5.5q3 -3 6.5 -5.5t6.5 -5.5q22 -19 36 -57t21.5 -81.5t10.5 -86t4 -70.5zM82 584q-12 -24 -19.5 -55t-12 -64t-6.5 -65t-2 -59h83q0 27 -2 59t-7 65t-13 64t-21 55zM110 800h42
v-21q0 -11 -2 -23t-7.5 -23t-14.5 -18t-22 -7q-11 0 -18.5 4.5t-13 11.5t-9.5 15.5t-9 16.5q-5 -11 -4.5 -23.5t0.5 -24.5h-42v21q0 11 2 23.5t7.5 23t14 17.5t22.5 7q11 0 18.5 -4.5t12.5 -11.5t9 -15.5t9 -15.5q5 11 5 23.5v23.5z" />
    <glyph glyph-name="Otilde" unicode="&#xd5;" horiz-adv-x="237" 
d="M96 645q32 -19 51 -59.5t29 -88.5t13 -96t3 -81t-3 -81t-13 -96t-29 -88.5t-51 -59.5q-32 19 -51 59.5t-29 88.5t-13 95.5t-3 81.5t3 81.5t13 95.5t29 88.5t51 59.5zM96 51q17 25 27.5 59t16.5 70.5t8 73t2 66.5t-2 66.5t-8 73t-16.5 70.5t-27.5 59q-17 -25 -27.5 -59
t-16.5 -70.5t-8 -73t-2 -66.5t2 -66.5t8 -73t16.5 -70.5t27.5 -59zM117 800h42v-21q0 -11 -2 -23t-7.5 -23t-14.5 -18t-22 -7q-11 0 -18.5 4.5t-12.5 11.5t-9 15.5t-9 16.5q-5 -11 -5 -23.5v-24.5h-42v21q0 11 2 23.5t7.5 23t14 17.5t22.5 7q11 0 18.5 -4.5t13 -11.5
t9.5 -15.5t9 -15.5q5 11 4.5 23.5t-0.5 23.5z" />
    <glyph glyph-name="ydieresis" unicode="&#xff;" horiz-adv-x="238" 
d="M192 641q0 -38 -2.5 -82.5t-10.5 -89t-23 -85.5t-39 -72v-313h-42v313q-25 31 -39.5 72t-22.5 85t-10.5 89t-2.5 83h42q0 -35 1.5 -72.5t7.5 -74.5t16.5 -72.5t28.5 -65.5q18 31 28.5 66t16 72t7.5 74.5t2 72.5h42z" />
    <glyph glyph-name="Ydieresis" unicode="&#x178;" horiz-adv-x="238" 
d="M192 641q0 -38 -2.5 -82.5t-10.5 -89t-23 -85.5t-39 -72v-313h-42v313q-25 31 -39.5 72t-22.5 85t-10.5 89t-2.5 83h42q0 -35 1.5 -72.5t7.5 -74.5t16.5 -72.5t28.5 -65.5q18 31 28.5 66t16 72t7.5 74.5t2 72.5h42z" />
    <glyph glyph-name="Acircumflex" unicode="&#xc2;" 
d="M167 341v-342h-42v300h-83v-300h-42v342q0 28 3 70.5t10.5 86t20.5 81t35 57.5q3 3 6 5.5t7 5.5q3 -3 6.5 -5.5t6.5 -5.5q22 -19 36 -57t21.5 -81.5t10.5 -86t4 -70.5zM82 584q-12 -24 -19.5 -55t-12 -64t-6.5 -65t-2 -59h83q0 27 -2 59t-7 65t-13 64t-21 55zM33 691
l-29 30l79 79l80 -79l-30 -30l-50 50z" />
    <glyph glyph-name="Ecircumflex" unicode="&#xca;" horiz-adv-x="184" 
d="M142 599h-100v-108h50v-42h-50v-408h100v-42h-142v642h142v-42zM29 691l-29 30l79 79l80 -79l-30 -30l-50 50z" />
    <glyph glyph-name="Aacute" unicode="&#xc1;" 
d="M167 341v-342h-42v300h-83v-300h-42v342q0 28 3 70.5t10.5 86t20.5 81t35 57.5q3 3 6 5.5t7 5.5q3 -3 6.5 -5.5t6.5 -5.5q22 -19 36 -57t21.5 -81.5t10.5 -86t4 -70.5zM82 584q-12 -24 -19.5 -55t-12 -64t-6.5 -65t-2 -59h83q0 27 -2 59t-7 65t-13 64t-21 55zM137 800
l19 -37l-137 -69l-19 37z" />
    <glyph glyph-name="Edieresis" unicode="&#xcb;" horiz-adv-x="184" 
d="M142 599h-100v-108h50v-42h-50v-408h100v-42h-142v642h142v-42zM0 799h42v-91h-42v91zM100 799h42v-91h-42v91z" />
    <glyph glyph-name="Egrave" unicode="&#xc8;" horiz-adv-x="184" 
d="M142 599h-100v-108h50v-42h-50v-408h100v-42h-142v642h142v-42zM0 763l19 37l137 -69l-19 -37z" />
    <glyph glyph-name="Iacute" unicode="&#xcd;" horiz-adv-x="94" 
d="M0 641h42v-642h-42v642zM137 800l19 -37l-137 -69l-19 37z" />
    <glyph glyph-name="Icircumflex" unicode="&#xce;" horiz-adv-x="94" 
d="M0 641h42v-642h-42v642zM-28 691l-29 30l79 79l80 -79l-30 -30l-50 50z" />
    <glyph glyph-name="Idieresis" unicode="&#xcf;" horiz-adv-x="94" 
d="M0 641h42v-642h-42v642zM-48 799h41v-91h-41v91zM52 799h41v-91h-41v91z" />
    <glyph glyph-name="Igrave" unicode="&#xcc;" horiz-adv-x="94" 
d="M0 641h42v-642h-42v642zM-119 763l18 37l138 -69l-19 -37z" />
    <glyph glyph-name="Oacute" unicode="&#xd3;" horiz-adv-x="237" 
d="M96 645q32 -19 51 -59.5t29 -88.5t13 -96t3 -81t-3 -81t-13 -96t-29 -88.5t-51 -59.5q-32 19 -51 59.5t-29 88.5t-13 95.5t-3 81.5t3 81.5t13 95.5t29 88.5t51 59.5zM96 51q17 25 27.5 59t16.5 70.5t8 73t2 66.5t-2 66.5t-8 73t-16.5 70.5t-27.5 59q-17 -25 -27.5 -59
t-16.5 -70.5t-8 -73t-2 -66.5t2 -66.5t8 -73t16.5 -70.5t27.5 -59zM157 800l19 -37l-137 -69l-19 37z" />
    <glyph glyph-name="Ocircumflex" unicode="&#xd4;" horiz-adv-x="237" 
d="M96 645q32 -19 51 -59.5t29 -88.5t13 -96t3 -81t-3 -81t-13 -96t-29 -88.5t-51 -59.5q-32 19 -51 59.5t-29 88.5t-13 95.5t-3 81.5t3 81.5t13 95.5t29 88.5t51 59.5zM96 51q17 25 27.5 59t16.5 70.5t8 73t2 66.5t-2 66.5t-8 73t-16.5 70.5t-27.5 59q-17 -25 -27.5 -59
t-16.5 -70.5t-8 -73t-2 -66.5t2 -66.5t8 -73t16.5 -70.5t27.5 -59zM46 691l-29 30l79 79l80 -79l-30 -30l-50 50z" />
    <glyph glyph-name="Ograve" unicode="&#xd2;" horiz-adv-x="237" 
d="M96 645q32 -19 51 -59.5t29 -88.5t13 -96t3 -81t-3 -81t-13 -96t-29 -88.5t-51 -59.5q-32 19 -51 59.5t-29 88.5t-13 95.5t-3 81.5t3 81.5t13 95.5t29 88.5t51 59.5zM96 51q17 25 27.5 59t16.5 70.5t8 73t2 66.5t-2 66.5t-8 73t-16.5 70.5t-27.5 59q-17 -25 -27.5 -59
t-16.5 -70.5t-8 -73t-2 -66.5t2 -66.5t8 -73t16.5 -70.5t27.5 -59zM10 763l19 37l137 -69l-19 -37z" />
    <glyph glyph-name="Uacute" unicode="&#xda;" horiz-adv-x="243" 
d="M150 641h42v-321q0 -33 -3 -81.5t-13 -96.5t-29.5 -88.5t-51.5 -58.5q-32 19 -51 59.5t-28.5 88.5t-12.5 96t-3 81v321h42v-321q0 -30 2 -66.5t7.5 -73t16 -70.5t27.5 -59q18 24 28.5 58t16.5 71t8 73.5t2 66.5v321zM147 800l19 -37l-137 -69l-19 37z" />
    <glyph glyph-name="Ucircumflex" unicode="&#xdb;" horiz-adv-x="243" 
d="M150 641h42v-321q0 -33 -3 -81.5t-13 -96.5t-29.5 -88.5t-51.5 -58.5q-32 19 -51 59.5t-28.5 88.5t-12.5 96t-3 81v321h42v-321q0 -30 2 -66.5t7.5 -73t16 -70.5t27.5 -59q18 24 28.5 58t16.5 71t8 73.5t2 66.5v321zM46 691l-29 30l79 79l80 -79l-30 -30l-50 50z" />
    <glyph glyph-name="Ugrave" unicode="&#xd9;" horiz-adv-x="243" 
d="M150 641h42v-321q0 -33 -3 -81.5t-13 -96.5t-29.5 -88.5t-51.5 -58.5q-32 19 -51 59.5t-28.5 88.5t-12.5 96t-3 81v321h42v-321q0 -30 2 -66.5t7.5 -73t16 -70.5t27.5 -59q18 24 28.5 58t16.5 71t8 73.5t2 66.5v321zM10 763l19 37l137 -69l-19 -37z" />
    <glyph glyph-name="quotedbl" unicode="&#x22;" horiz-adv-x="193" 
d="M42 629v-156h-42v156h42zM142 629v-156h-42v156h42z" />
    <glyph glyph-name="exclam" unicode="!" horiz-adv-x="93" 
d="M42 641v-491h-42v491h42zM42 91v-91h-42v91h42z" />
  </font>
</defs>
</svg>
